<svg width="36" height="36" viewBox="0 0 36 36" fill="none" xmlns="http://www.w3.org/2000/svg">
    <path d="M30.3735 10.9326L27.7754 12.4326" stroke="#98A5B3" stroke-width="2" stroke-linecap="round"/>
    <path d="M26.6426 6.73688L25.1426 9.33496" stroke="#98A5B3" stroke-width="2" stroke-linecap="round"/>
    <path d="M32.1426 16.2632H29.1426" stroke="#98A5B3" stroke-width="2" stroke-linecap="round"/>
    <path fill-rule="evenodd" clip-rule="evenodd"
          d="M16.5795 5.04053C15.6229 5.59281 15.2951 6.81599 15.8474 7.77258L16.5141 8.92728L16.4742 9.25822C16.2483 11.1332 15.1528 12.7924 13.5173 13.7367L7.45513 17.2367C5.06366 18.6174 4.24429 21.6753 5.625 24.0668C6.83448 26.1617 9.33098 27.0502 11.5391 26.3103L13.8391 30.294C14.5295 31.4898 16.0584 31.8995 17.2542 31.2091C18.4499 30.5188 18.8596 28.9898 18.1692 27.794L15.9192 23.8969L18.5173 22.3969C20.1528 21.4527 22.1375 21.3335 23.8742 22.0754L24.1808 22.2063L24.8474 23.361C25.3997 24.3176 26.6229 24.6454 27.5795 24.0931C28.5361 23.5408 28.8638 22.3176 28.3115 21.361L19.3115 5.77258C18.7592 4.81599 17.5361 4.48824 16.5795 5.04053Z"
          fill="white"/>
    <path d="M15.8474 7.77258L14.9814 8.27258L15.8474 7.77258ZM16.5141 8.92728L17.5069 9.04689C17.5328 8.83208 17.4883 8.61466 17.3801 8.42728L16.5141 8.92728ZM16.4742 9.25822L15.4814 9.1386L15.4814 9.1386L16.4742 9.25822ZM11.5391 26.3103L12.4051 25.8103C12.1673 25.3984 11.6723 25.211 11.2214 25.3621L11.5391 26.3103ZM15.9192 23.8969L15.4192 23.0309C14.9409 23.3071 14.7771 23.9186 15.0532 24.3969L15.9192 23.8969ZM23.8742 22.0754L24.267 21.1558L24.267 21.1558L23.8742 22.0754ZM24.1808 22.2063L25.0468 21.7063C24.9386 21.519 24.7726 21.3717 24.5736 21.2867L24.1808 22.2063ZM28.3115 21.361L27.4455 21.861L28.3115 21.361ZM19.3115 5.77258L20.1776 5.27258L19.3115 5.77258ZM16.7135 7.27258C16.4373 6.79429 16.6012 6.1827 17.0795 5.90655L16.0795 4.1745C14.6446 5.00293 14.153 6.8377 14.9814 8.27258L16.7135 7.27258ZM17.3801 8.42728L16.7135 7.27258L14.9814 8.27258L15.6481 9.42728L17.3801 8.42728ZM15.5213 8.80766L15.4814 9.1386L17.467 9.37783L17.5069 9.04689L15.5213 8.80766ZM15.4814 9.1386C15.2932 10.7011 14.3802 12.0838 13.0173 12.8707L14.0173 14.6027C15.9254 13.5011 17.2035 11.5653 17.467 9.37783L15.4814 9.1386ZM13.0173 12.8707L6.95513 16.3707L7.95513 18.1027L14.0173 14.6027L13.0173 12.8707ZM6.95513 16.3707C4.08537 18.0275 3.10212 21.6971 4.75897 24.5668L6.49103 23.5668C5.38646 21.6536 6.04196 19.2073 7.95513 18.1027L6.95513 16.3707ZM4.75897 24.5668C6.21093 27.0817 9.20668 28.1465 11.8568 27.2585L11.2214 25.3621C9.45528 25.9539 7.45803 25.2417 6.49103 23.5668L4.75897 24.5668ZM10.6731 26.8103L12.9731 30.794L14.7051 29.794L12.4051 25.8103L10.6731 26.8103ZM12.9731 30.794C13.9396 32.4681 16.0801 33.0416 17.7542 32.0751L16.7542 30.3431C16.0367 30.7573 15.1193 30.5115 14.7051 29.794L12.9731 30.794ZM17.7542 32.0751C19.4282 31.1086 20.0018 28.9681 19.0353 27.294L17.3032 28.294C17.7174 29.0115 17.4716 29.9289 16.7542 30.3431L17.7542 32.0751ZM19.0353 27.294L16.7853 23.3969L15.0532 24.3969L17.3032 28.294L19.0353 27.294ZM16.4192 24.763L19.0173 23.263L18.0173 21.5309L15.4192 23.0309L16.4192 24.763ZM19.0173 23.263C20.3802 22.4761 22.0341 22.3768 23.4814 22.995L24.267 21.1558C22.2409 20.2903 19.9254 20.4293 18.0173 21.5309L19.0173 23.263ZM23.4814 22.995L23.7879 23.126L24.5736 21.2867L24.267 21.1558L23.4814 22.995ZM25.7135 22.861L25.0468 21.7063L23.3147 22.7063L23.9814 23.861L25.7135 22.861ZM27.0795 23.2271C26.6012 23.5032 25.9896 23.3393 25.7135 22.861L23.9814 23.861C24.8098 25.2959 26.6446 25.7875 28.0795 24.9591L27.0795 23.2271ZM27.4455 21.861C27.7217 22.3393 27.5578 22.9509 27.0795 23.2271L28.0795 24.9591C29.5144 24.1307 30.006 22.2959 29.1776 20.861L27.4455 21.861ZM18.4455 6.27258L27.4455 21.861L29.1776 20.861L20.1776 5.27258L18.4455 6.27258ZM17.0795 5.90655C17.5578 5.63041 18.1694 5.79429 18.4455 6.27258L20.1776 5.27258C19.3491 3.8377 17.5144 3.34607 16.0795 4.1745L17.0795 5.90655Z"
          fill="#98A5B3"/>
    <path d="M15.8477 7.77258C15.2954 6.81599 15.6231 5.59281 16.5797 5.04053C17.5363 4.48824 18.7595 4.81599 19.3118 5.77258L28.3118 21.361C28.864 22.3176 28.5363 23.5408 27.5797 24.0931C26.6231 24.6454 25.3999 24.3176 24.8477 23.361L15.8477 7.77258Z"
          fill="#DAE0E6" stroke="#98A5B3" stroke-width="2"/>
</svg>
