<svg width="18" height="18" viewBox="0 0 18 18" fill="none" xmlns="http://www.w3.org/2000/svg">
    <path d="M13.1418 10.2729C12.9605 10.4486 12.8772 10.7027 12.9185 10.9518L13.5407 14.3954C13.5932 14.6872 13.47 14.9826 13.2257 15.1513C12.9864 15.3263 12.6679 15.3473 12.4069 15.2073L9.30696 13.5905C9.19917 13.5331 9.07949 13.5023 8.957 13.4988H8.76733C8.70154 13.5086 8.63715 13.5296 8.57835 13.5618L5.47776 15.1863C5.32448 15.2633 5.1509 15.2906 4.98082 15.2633C4.56648 15.1849 4.29001 14.7901 4.35791 14.3737L4.98082 10.9301C5.02212 10.6789 4.93883 10.4234 4.75755 10.2449L2.23018 7.79524C2.01881 7.59017 1.94532 7.28221 2.04191 7.00435C2.1357 6.72718 2.37506 6.52491 2.66413 6.47941L6.14267 5.97478C6.40724 5.94748 6.63961 5.78651 6.75859 5.54854L8.29139 2.40595C8.32779 2.33596 8.37468 2.27156 8.43137 2.21697L8.49436 2.16798C8.52726 2.13158 8.56506 2.10149 8.60705 2.07699L8.68334 2.04899L8.80232 2H9.09699C9.36015 2.0273 9.59182 2.18478 9.71291 2.41995L11.266 5.54854C11.378 5.77741 11.5957 5.93629 11.8469 5.97478L15.3255 6.47941C15.6194 6.52141 15.8651 6.72438 15.9624 7.00435C16.0541 7.28501 15.975 7.59297 15.7594 7.79524L13.1418 10.2729Z"
          fill="#FFBB33"/>
    <path fill-rule="evenodd" clip-rule="evenodd"
          d="M9 2V13.5012C8.98572 13.5 8.97138 13.4992 8.957 13.4988H8.76733C8.70154 13.5086 8.63715 13.5296 8.57835 13.5618L5.47776 15.1863C5.32448 15.2633 5.1509 15.2906 4.98082 15.2633C4.56648 15.1849 4.29001 14.7901 4.35791 14.3737L4.98082 10.9301C5.02212 10.6789 4.93883 10.4234 4.75755 10.2449L2.23018 7.79524C2.01881 7.59017 1.94532 7.28221 2.04191 7.00435C2.1357 6.72718 2.37506 6.52491 2.66413 6.47941L6.14267 5.97478C6.40724 5.94748 6.63961 5.78651 6.75859 5.54854L8.29139 2.40595C8.32779 2.33596 8.37468 2.27156 8.43137 2.21697L8.49436 2.16798C8.52726 2.13158 8.56506 2.10149 8.60705 2.07699L8.68334 2.04899L8.80232 2H9Z"
          fill="#FFBB33"/>
</svg>
